<svg height="512pt" viewBox="0 -13 512.00064 512" width="512pt" xmlns="http://www.w3.org/2000/svg"><path d="m12.5 112.167969h34.546875v34.371093c0 6.894532 5.605469 12.5 12.5 12.5h40.488281c6.894532 0 12.5-5.605468 12.5-12.5v-34.371093h34.546875c6.894531 0 12.5-5.605469 12.5-12.5v-40.296875c0-6.894532-5.605469-12.5-12.5-12.5h-34.546875v-34.371094c0-6.890625-5.605468-12.5-12.5-12.5h-40.488281c-6.894531 0-12.5 5.609375-12.5 12.5v34.371094h-34.546875c-6.894531 0-12.5 5.605468-12.5 12.5v40.296875c0 6.894531 5.605469 12.5 12.5 12.5zm2.5-50.296875h34.546875c6.890625 0 12.5-5.605469 12.5-12.5v-34.371094h35.488281v34.371094c0 6.894531 5.605469 12.5 12.5 12.5h34.546875v35.296875h-34.546875c-6.894531 0-12.5 5.609375-12.5 12.5v34.371093h-35.488281v-34.371093c0-6.890625-5.609375-12.5-12.5-12.5h-34.546875zm0 0"/><path d="m268.375 112.523438c-4.140625 0-7.5 3.359374-7.5 7.5v18.394531c0 4.140625 3.359375 7.5 7.5 7.5 4.144531 0 7.5-3.359375 7.5-7.5v-18.394531c0-4.140626-3.355469-7.5-7.5-7.5zm0 0"/><path d="m415.203125 324.972656c-35.074219 0-63.609375 28.742188-63.609375 64.070313 0 9.816406 2.195312 19.355469 6.410156 28.042969-.472656.210937-.941406.433593-1.402344.660156h-41.863281v-86.371094c0-4.144531-3.359375-7.5-7.5-7.5-4.144531 0-7.5 3.355469-7.5 7.5v130.488281h-85.035156c.273437-18.8125 15.511719-34.027343 34.199219-34.027343h14c4.140625 0 7.5-3.359376 7.5-7.5v-199.628907h19.660156c20.855469 0 39.726562-8.6875 53.265625-22.640625l14.074219 58.53125c.824218 3.441406 3.898437 5.75 7.285156 5.75.582031 0 1.167969-.066406 1.757812-.210937 4.027344-.964844 6.507813-5.015625 5.539063-9.042969l-1.8125-7.542969c5.214844 3.339844 11.40625 7.695313 18.046875 13.175781 1.398438 1.152344 3.089844 1.714844 4.769531 1.714844 2.160157 0 4.308594-.929687 5.789063-2.726562 2.636718-3.195313 2.183594-7.921875-1.011719-10.558594-13.878906-11.449219-25.890625-18.382812-32.445313-21.773438l-10.332031-42.96875c6.09375-10.875 9.589844-23.414062 9.589844-36.769531 0-10.1875-2.039063-19.898437-5.703125-28.757812 8.941406-23.230469 3.621094-49.628907-14.21875-67.621094-9.136719-9.207031-20.683594-15.289063-33.394531-17.582031-2.542969-.457032-5.144531.421875-6.878907 2.332031-3.75 4.121094-6.863281 8.648437-9.34375 13.4375-8.824218-8.195313-19.664062-13.632813-31.519531-15.769531-2.542969-.457032-5.140625.421875-6.878906 2.332031-14.027344 15.414063-19.097656 35.898437-15.382813 54.988281-9.882812 8.652344-17.492187 19.875-21.785156 32.625h-8.332031c-2.871094 0-5.675781.261719-8.410156.738282-3.605469-2.863282-8.148438-4.589844-13.09375-4.589844h-14.332031c-11.679688 0-21.183594 9.554687-21.183594 21.296875 0 7.554687 3.949218 14.1875 9.867187 17.96875-1.324219 4.480469-2.046875 9.21875-2.046875 14.125 0 27.316406 22.070313 49.539062 49.195313 49.539062h44.265625v192.128907h-6.5c-26.957032 0-48.910156 21.945312-49.1875 49.023437h-8.84375v-.0625c0-6.78125-5.425782-12.316406-12.164063-12.496094v-46.359375c0-4.140625-3.359375-7.5-7.5-7.5-4.144531 0-7.5 3.359375-7.5 7.5v48.855469c0 6.78125 5.425781 12.316406 12.164063 12.496094v6.601562h-22.824219v-64.3125c0-4.140625-3.359375-7.5-7.5-7.5s-7.5 3.359375-7.5 7.5v55.277344h-1.457031v-.0625c0-6.449219-4.910156-11.773437-11.1875-12.429687v-42.785157c0-4.144531-3.359375-7.5-7.5-7.5s-7.5 3.355469-7.5 7.5v45.214844c0 6.449219 4.910156 11.773437 11.191406 12.429687v6.664063h-21.851562v-64.308594c0-4.144531-3.355469-7.5-7.5-7.5-4.140626 0-7.5 3.355469-7.5 7.5v55.277344h-29.667969c1.402343-54.71875 18-90.167969 31.796875-110.367187 2.871094-4.203126 5.746094-7.941407 8.53125-11.253907 12.140625 9.523438 27.996094 15.316407 45.332031 15.316407 8.050781 0 15.78125-1.257813 22.96875-3.546876v14.933594c0 4.144532 3.359375 7.5 7.5 7.5 4.144531 0 7.5-3.355468 7.5-7.5v-21.65625c18.710937-11.121094 31.085937-30.199218 31.085937-51.832031 0-3.347656-.304687-6.628906-.875-9.832031 12.191407-13.089844 16.597657-31.660156 11.488282-48.929688-.503906-1.691406-1.429688-3.246094-2.679688-4.488281-1.246094-1.246094-2.796875-2.167969-4.484375-2.667969-4.6875-1.386718-9.535156-2.089844-14.40625-2.089844-11.46875 0-22.351562 3.804688-31.226562 10.796876-8.265625-3.152344-17.347657-4.894532-26.871094-4.894532s-18.605469 1.742188-26.867187 4.894532c-8.878907-6.992188-19.757813-10.796876-31.230469-10.796876-4.871094 0-9.71875.703126-14.394531 2.085938-1.679688.496094-3.230469 1.414062-4.507813 2.683594-1.242187 1.242187-2.160156 2.792968-2.667969 4.488281-5.105468 17.257813-.703125 35.828125 11.488282 48.917969-.566407 3.203125-.871094 6.484375-.871094 9.828125 0 13.519531 4.839844 26.027343 13.023437 36.234375-3.34375 3.90625-6.796875 8.335937-10.222656 13.347656-7.679687 11.242188-16.152344 26.820312-22.78125 47.222656-.558594-19.109375 4.488281-38.414062 15.269531-55.257812 5.164063-8.066406 2.804688-18.832032-5.257812-23.996094-2.804688-1.796875-6.039063-2.746094-9.359375-2.746094-5.957031 0-11.429688 2.992188-14.636719 8.007813-28.636719 44.734375-27.476562 102.226562 2.195312 145.59375h-32.414062c-4.140625 0-7.5 3.359375-7.5 7.5 0 4.144531 3.359375 7.5 7.5 7.5h77.742188c1.507812 5.210937 6.3125 9.035156 12 9.035156h26.847656c5.691406 0 10.496094-3.824219 12-9.035156h2.457031c1.507813 5.210937 6.3125 9.035156 12 9.035156h27.824219c5.6875 0 10.492187-3.824219 12-9.035156h205.621094c4.140624 0 7.5-3.355469 7.5-7.5 0-4.140625-3.359376-7.5-7.5-7.5h-52.28125c.238281-15.949219 11.511718-29.882813 26.988281-33.246094 2.441406-.53125 4.460937-2.246094 5.378906-4.570313.921875-2.324218.621094-4.957031-.796875-7.015624-5.683594-8.246094-8.691406-17.921876-8.691406-27.984376 0-27.058593 21.808594-49.070312 48.613281-49.070312 4.140625 0 7.5-3.359375 7.5-7.5s-3.359375-7.496094-7.5-7.496094zm-150.199219-277.589844c8.027344 2.199219 15.3125 6.449219 21.261719 12.445313 1.085937 1.097656 2.105469 2.238281 3.070313 3.410156-.53125 2.441407-.917969 4.90625-1.164063 7.386719-11.90625.300781-23.121094 3.445312-33.023437 8.761719-.589844-11.207031 2.671874-22.585938 9.855468-32.003907zm-89.699218 97.988282c-3.410157 0-6.183594-2.824219-6.183594-6.296875 0-3.46875 2.773437-6.292969 6.183594-6.292969h14.332031c3.410156 0 6.183593 2.824219 6.183593 6.292969 0 3.472656-2.773437 6.296875-6.183593 6.296875zm35.832031 60.335937c-18.859375 0-34.199219-15.492187-34.199219-34.539062 0-3.773438.625-7.398438 1.738281-10.796875h10.960938c11.679687 0 21.179687-9.554688 21.179687-21.296875 0-.824219-.054687-1.632813-.148437-2.429688.15625-.003906.3125-.015625.46875-.015625h4.957031c-.355469 2.957032-.542969 5.964844-.542969 9.015625 0 24.535157 11.75 46.359375 29.875 60.066407h-34.289062zm19.414062-60.0625c0-32.582031 25.839844-59.167969 57.917969-60.027343 1.214844 8.808593 4.269531 17.441406 9.238281 25.285156 2.21875 3.5 6.851563 4.539062 10.351563 2.320312 3.496094-2.214844 4.535156-6.847656 2.320312-10.347656-10.925781-17.242188-9.8125-39.476562 2.371094-55.492188 8.027344 2.199219 15.308594 6.453126 21.253906 12.445313 14.949219 15.070313 18.398438 37.871094 8.59375 56.738281-1.914062 3.671875-.480468 8.203125 3.195313 10.113282.273437.140624.550781.265624.832031.371093 1.902344 5.859375 2.953125 12.101563 2.953125 18.59375 0 33.121094-26.699219 60.0625-59.515625 60.0625-32.8125 0-59.511719-26.941406-59.511719-60.0625zm-31.71875 94.804688c2.625 0 5.238281.289062 7.800781.863281 1.9375 8.65625.554688 17.613281-3.691406 25.195312-4.710937-8.757812-11.648437-16.367187-20.140625-22.25 4.914063-2.488281 10.371094-3.808593 16.03125-3.808593zm-58.097656 5.902343c29.804687 0 54.054687 21.128907 54.054687 47.101563s-24.25 47.105469-54.054687 47.105469-54.054687-21.132813-54.054687-47.105469c.003906-25.972656 24.25-47.101563 54.054687-47.101563zm-62.207031 20.15625c-4.246094-7.585937-5.625-16.542968-3.6875-25.195312 2.5625-.574219 5.175781-.863281 7.796875-.863281 5.664062 0 11.121093 1.320312 16.03125 3.804687-8.488281 5.886719-15.429688 13.496094-20.140625 22.253906zm-36.519532 168.445313c-15.695312-35.328125-13.152343-77.019531 8.34375-110.601563.4375-.6875 1.1875-1.09375 2.003907-1.09375.453125 0 .878906.125 1.265625.375 1.105468.707032 1.425781 2.175782.71875 3.277344-19.121094 29.878906-22.617188 66.445313-11.023438 98.628906-.484375 3.0625-.921875 6.203126-1.308594 9.414063zm286.703126 26.910156h-13.976563v-29.117187h23.839844c-6.125 8.226562-9.75 18.355468-9.863281 29.117187zm0 0"/><path d="m121.984375 293.445312c4.140625 0 7.5-3.355468 7.5-7.5v-8.535156c0-4.144531-3.359375-7.5-7.5-7.5s-7.5 3.355469-7.5 7.5v8.535156c0 4.144532 3.359375 7.5 7.5 7.5zm0 0"/><path d="m159.488281 293.445312c4.140625 0 7.5-3.355468 7.5-7.5v-8.535156c0-4.144531-3.359375-7.5-7.5-7.5-4.144531 0-7.5 3.355469-7.5 7.5v8.535156c0 4.144532 3.355469 7.5 7.5 7.5zm0 0"/><path d="m129.714844 326.464844c4 0 7.8125-1.1875 11.019531-3.308594 3.207031 2.121094 7.023437 3.308594 11.023437 3.308594 11.011719 0 19.96875-8.957032 19.96875-19.96875 0-4.144532-3.359374-7.5-7.5-7.5-4.144531 0-7.5 3.355468-7.5 7.5 0 2.738281-2.230468 4.96875-4.96875 4.96875-1.84375 0-3.527343-1.015625-4.394531-2.652344-1.300781-2.453125-3.851562-3.988281-6.628906-3.988281s-5.324219 1.535156-6.625 3.988281c-.867187 1.636719-2.550781 2.652344-4.394531 2.652344-2.742188 0-4.96875-2.230469-4.96875-4.96875 0-4.144532-3.359375-7.5-7.5-7.5-4.144532 0-7.5 3.355468-7.5 7.5 0 11.011718 8.957031 19.96875 19.96875 19.96875zm0 0"/><path d="m504.488281 461.863281h-27.71875v-40.277343c19.167969-13.339844 30.886719-34.027344 34.242188-60.921876 3.109375-24.929687-2.054688-46.066406-2.652344-48.398437-1.367187-5.289063-6.125-8.984375-11.570313-8.984375-.417968 0-.847656.023438-1.386718.082031-5.886719.6875-10.429688 5.6875-10.5625 11.628907-.382813 16.519531-8.175782 30.015624-17.210938 40.183593-8.550781-30.683593-23.078125-58.148437-43.511718-82.097656-2.6875-3.148437-7.421876-3.523437-10.574219-.835937-3.148438 2.6875-3.523438 7.421874-.835938 10.574218 31.097657 36.445313 47.554688 81.8125 48.964844 134.929688l.097656 15v29.117187h-29.777343c-4.140626 0-7.5 3.359375-7.5 7.5s3.359374 7.5 7.5 7.5h72.496093c4.144531 0 7.5-3.359375 7.5-7.5 0-4.144531-3.355469-7.5-7.5-7.5zm-32.757812-89.515625c9.855469-9.214844 19.90625-21.804687 24.898437-37.671875.519532 6.945313.601563 15.296875-.5 24.132813-2.285156 18.320312-9.175781 33.136718-20.234375 43.957031-.816406-10.4375-2.203125-20.578125-4.164062-30.417969zm0 0"/></svg>